<svg id="Layer_1" data-name="Layer 1" xmlns="http://www.w3.org/2000/svg" viewBox="0 0 1110 630"><defs><style>.cls-1{fill:#fff;}.cls-2{fill:#e5e7fd;}.cls-3{fill:#e0e0e0;}.cls-4{fill:#d1d4fc;}.cls-5{fill:#b2b8fa;}.cls-6{fill:#c9c9c9;}.cls-7{fill:#5f4dee;}.cls-8{fill:#f9a7b3;}.cls-9{fill:#4d5068;}.cls-10{fill:#e55151;}.cls-11{fill:#ffcebd;}.cls-12{fill:#263238;}.cls-13{fill:#30334f;opacity:0.3;}.cls-13,.cls-17{isolation:isolate;}.cls-14{fill:#ffbba1;}.cls-15{fill:#191c3c;}.cls-16{fill:#323544;}.cls-17{fill:#a7a9ac;opacity:0.1;}.cls-18{fill:#f2f3f7;}.cls-19{fill:#e8505b;}</style></defs><title>video-preview</title><rect class="cls-1" width="1110" height="630" rx="16" ry="16"/><rect class="cls-2" x="58.489" y="602.913" width="1016.934" height="9.92"/><path class="cls-3" d="M250.658,370.269c-31.595,19.563-21.764,65.309-21.338,96.922q0.7,52.29,1.409,104.578c0.029,2.1-3.234,2.1-3.262,0q-0.842-62.492-1.684-124.984c-0.4-29.416-5.429-61.592,23.228-79.336,1.79-1.108,3.43,1.71,1.649,2.817h0Z"/><path class="cls-2" d="M233.113,386.181a39.847,39.847,0,0,1,5.1-8.657c3.287-3.934,7.866-6.525,12.336-9.029l0.658,0.351c2.584,6.718,3.926,14.09,2.58,21.162s-5.662,13.784-12.153,16.905c-4.759,2.289-10.382,2.587-14.824,5.445C225.555,403.337,229.21,394.411,233.113,386.181Z"/><path class="cls-2" d="M200.02,330.694c31.377,12.446,24.625,60.043,25.89,86.867,2.144,45.488,3.3,90.974,3.006,136.516a1.632,1.632,0,0,1-3.262,0q0.372-56.8-1.96-113.563c-0.718-17.1-1.577-34.188-2.385-51.28-0.937-19.847-.025-46.616-22.156-55.394-1.929-.765-1.088-3.921.867-3.146h0Z"/><path class="cls-4" d="M237.748,243.133c0.093-.257.16-0.524,0.25-0.783a24.156,24.156,0,0,1,2.079,3.928Z"/><path class="cls-2" d="M198.233,333.465a1.61,1.61,0,0,1,2.4-1.083c10.208,3.029,18.263,11.684,21.757,21.74,3.44,9.9,2.734,20.942-.733,30.84-3.9-6.158-11.822-9.237-17.37-14.344C194.437,361.552,192.925,345.751,198.233,333.465Z"/><path class="cls-5" d="M250.189,608.667H203.223a3.555,3.555,0,0,1-3.555-3.555h0V554.119h54.076v50.992A3.555,3.555,0,0,1,250.189,608.667Z"/><path class="cls-2" d="M225.286,489.349c0.489-12.6,1.063-27.533-8.3-37.412-7.309-7.712-26.051-13.027-36.556-13.3-2.1-.054-2.1-3.317,0-3.262,8.012,0.207,16.369,3.384,23.916,5.946,5.552,1.885,10.806,3.969,14.947,8.308,10.057,10.536,9.78,26.189,9.254,39.719-0.081,2.092-3.344,2.1-3.262,0h0Z"/><path class="cls-2" d="M176.913,434.063a1.02,1.02,0,0,1,.8-0.226l11.831,0.1a41.6,41.6,0,0,1,10.175.923c6.669,1.734,12.068,6.661,16.287,12.108l1.228,0.187c-6.154,1.964-12.2,4.539-18.621,5.208s-13.545-.96-17.57-6.012c-2.565-3.218-3.562-7.389-4.239-11.444A1.016,1.016,0,0,1,176.913,434.063Z"/><path class="cls-2" d="M1029.552,409.487c-0.41-6.22-.871-12.634-3.679-18.2a99.221,99.221,0,0,0-19.163,86.983l5.792,5.381c9.558-9,14.728-21.884,16.749-34.859S1030.415,422.589,1029.552,409.487Z"/><path class="cls-2" d="M1082.364,443.235a3.052,3.052,0,0,0-1.694-.79,44.165,44.165,0,0,0-53.8,43.129l3.9,4.713c8.233,2.246,16.842-1.952,23.674-7.066a84.256,84.256,0,0,0,27.91-36.813C1082.758,445.367,1083.1,444.073,1082.364,443.235Z"/><path class="cls-2" d="M954.531,442.525c-8.756-7.114-18.943-14.068-30.2-13.38-1.191.073-2.559,0.351-3.117,1.407-1.23,2.334,2.709,4.09,3.474,6.615,0.446,1.471-.277,3.007-0.581,4.515-0.556,2.758.321,5.592,1.363,8.206,10.3,25.838,39.455,42.708,66.988,38.76l3.427-5.381A304.154,304.154,0,0,0,954.531,442.525Z"/><path class="cls-2" d="M986.8,484.9c19.644,18.653,22.164,46.328,18.778,71.862-0.737,5.559,8.011,5.5,8.741,0,3.689-27.814-.108-57.884-21.338-78.042-4.079-3.873-10.27,2.3-6.181,6.181h0Z"/><path class="cls-2" d="M1005.989,476.038c4.154,24.551-1.142,49.355,1.481,74.022,0.589,5.536,9.336,5.6,8.741,0-2.709-25.477,2.5-50.955-1.793-76.346-0.936-5.534-9.361-3.188-8.429,2.324h0Z"/><path class="cls-2" d="M1031.6,474.3c-7.209,10.819-14.492,22.625-17.863,35.31-3.657,13.762-2.612,29.245-3.244,43.383-0.251,5.623,8.49,5.612,8.741,0,0.595-13.325-.369-28.111,2.931-41.059,3.014-11.824,10.261-23.136,16.982-33.221,3.128-4.694-4.44-9.076-7.548-4.412h0Z"/><path class="cls-5" d="M1041.453,608.041H992.664a4.418,4.418,0,0,1-4.271-3.287l-16.61-62.7a4.418,4.418,0,0,1,4.271-5.55h82.009a4.418,4.418,0,0,1,4.271,5.55l-16.61,62.7A4.419,4.419,0,0,1,1041.453,608.041Z"/><path class="cls-6" d="M1023.652,400.732c-6.5,24.491-6.552,50.026-12.468,74.629a0.632,0.632,0,0,0,1.218.336c5.916-24.6,5.971-50.145,12.468-74.629a0.632,0.632,0,0,0-1.218-.336h0Z"/><path class="cls-6" d="M1031.686,482.719a83.533,83.533,0,0,1,43.3-34.267c0.763-.267.434-1.487-0.335-1.218a84.936,84.936,0,0,0-44.059,34.848,0.632,0.632,0,0,0,1.091.638h0Z"/><path class="cls-6" d="M927.248,436.965c3.935,9.89,10.854,16.778,19.5,22.833,12.46,8.729,28.49,13.031,39.909,22.823,0.72,0.618,1.773-.426,1.048-1.048-7.946-6.815-18.066-9.623-27.062-14.757-12.916-7.371-26.247-15.879-31.963-30.244-0.348-.875-1.782-0.494-1.428.394h0Z"/><rect class="cls-2" x="259.547" y="41.557" width="232.398" height="409.449" rx="3.463" ry="3.463"/><rect class="cls-5" x="282.303" y="323.19" width="93.443" height="8.32"/><rect class="cls-7" x="282.303" y="340.584" width="46.722" height="8.32"/><path class="cls-5" d="M272,425.335c7.641-10.36,15.861-23.665,24.609-33.109,3.083-3.328,6.573-6.78,11.058-7.456,6.333-.955,11.912,3.868,16.588,8.245,5.591,5.232,11.725,10.524,19.253,11.927,9.271,1.727,18.453-2.8,26.722-7.327,7.2-3.949,14.53-8.167,19.653-14.589,4.932-6.185,7.7-14.256,14.059-18.955a8.111,8.111,0,0,1,3.766-1.711c2.4-.283,4.685,1.153,6.37,2.885,4.406,4.528,5.984,11,8.266,16.886s6.127,12.008,12.289,13.4c8.021,1.81,15.282-5.246,19.364-12.383s7.264-15.509,14.385-19.619c2.2-1.27,5.051-2.012,7.225-.7,2.4,1.452,2.9,4.656,3.155,7.448l3.186,34.758c0.441,4.813.767,16.351-2.02,20.3H272Z"/><rect class="cls-1" x="278.623" y="195.819" width="7.432" height="75.431"/><rect class="cls-1" x="291.871" y="195.819" width="7.432" height="75.431"/><rect class="cls-1" x="305.119" y="195.819" width="7.432" height="75.431"/><rect class="cls-1" x="318.368" y="195.819" width="7.432" height="75.431"/><rect class="cls-1" x="331.616" y="195.819" width="7.432" height="75.431"/><rect class="cls-1" x="344.865" y="195.819" width="7.432" height="75.431"/><rect class="cls-1" x="358.113" y="195.819" width="7.432" height="75.431"/><rect class="cls-1" x="371.362" y="195.819" width="7.432" height="75.431"/><rect class="cls-1" x="384.61" y="195.819" width="7.432" height="75.431"/><rect class="cls-1" x="397.859" y="195.819" width="7.432" height="75.431"/><rect class="cls-1" x="411.107" y="195.819" width="7.432" height="75.431"/><rect class="cls-5" x="278.623" y="252.392" width="7.432" height="18.858"/><rect class="cls-5" x="291.871" y="233.535" width="7.432" height="37.715"/><rect class="cls-5" x="305.119" y="233.535" width="7.432" height="37.715"/><rect class="cls-5" x="318.368" y="209.577" width="7.432" height="61.673"/><rect class="cls-5" x="331.616" y="222.201" width="7.432" height="49.049"/><rect class="cls-5" x="344.865" y="254.158" width="7.432" height="17.092"/><rect class="cls-5" x="358.113" y="222.201" width="7.432" height="49.049"/><rect class="cls-5" x="371.362" y="248.584" width="7.432" height="22.666"/><rect class="cls-5" x="384.61" y="233.535" width="7.432" height="37.715"/><rect class="cls-5" x="397.859" y="219.228" width="7.432" height="52.022"/><rect class="cls-5" x="411.107" y="212.168" width="7.432" height="59.082"/><rect class="cls-8" x="427.359" y="199.905" width="48.308" height="7.432"/><rect class="cls-1" x="427.359" y="220.715" width="48.308" height="3.716"/><rect class="cls-1" x="427.359" y="229.819" width="48.308" height="3.716"/><rect class="cls-1" x="427.359" y="238.923" width="48.308" height="3.716"/><rect class="cls-1" x="427.359" y="248.027" width="24.154" height="3.716"/><rect class="cls-5" x="282.303" y="305.578" width="109.217" height="8.32"/><rect class="cls-1" x="272.805" y="65.169" width="204.179" height="110.272"/><rect class="cls-9" x="272.805" y="65.169" width="204.179" height="24.579"/><path class="cls-8" d="M287.206,157.289H465.938c-0.274,0,.427-40.205-0.1-44.25-6.154,3.234-10.843,9.427-17.372,12.656-5.249,2.6-11.6,4.18-17.47,3.192-5.508-.927-9.991-5.08-15.646-5.459-7.344-.492-12.317,5.49-17.563,9.6-7.364,5.764-16.7,12.756-26.191,14.2-6.121.933-11.06-1.806-14.864-6.412-4.927-5.967-7.445-11.389-15.8-12.536a26.175,26.175,0,0,0-19.028,4.792c-6.4,4.992-10.225,13.193-17.578,16.636a16.7,16.7,0,0,1-8.4,1.479c-1.875-.153-6.674-2.7-8.335-1.247C286.371,151.005,287.206,155.654,287.206,157.289Z"/><circle class="cls-1" cx="290.271" cy="77.305" r="2.692"/><circle class="cls-1" cx="302.781" cy="77.305" r="2.692"/><circle class="cls-1" cx="315.291" cy="77.305" r="2.692"/><rect class="cls-1" x="427.359" y="261.775" width="48.308" height="3.716"/><rect class="cls-1" x="427.359" y="270.88" width="48.308" height="3.716"/><rect class="cls-1" x="427.359" y="279.983" width="48.308" height="3.716"/><rect class="cls-1" x="427.359" y="289.088" width="24.154" height="3.716"/><rect class="cls-1" x="427.359" y="302.444" width="48.308" height="3.716"/><rect class="cls-1" x="427.359" y="311.547" width="48.308" height="3.716"/><rect class="cls-1" x="427.359" y="320.652" width="24.154" height="3.716"/><rect class="cls-2" x="349.674" y="478.284" width="485.569" height="115.963" rx="2.011" ry="2.011"/><rect class="cls-1" x="370.05" y="502.362" width="114.397" height="71.341"/><polygon class="cls-5" points="387.738 528.605 370.139 554.016 370.05 573.703 415.355 573.703 387.738 528.605"/><polygon class="cls-1" points="390.524 541.845 392.105 544.459 394.895 540.432 387.738 528.605 379.627 540.317 382.133 544.459 384.051 541.689 387.119 546.76 390.524 541.845"/><polygon class="cls-5" points="409.213 563.895 422.598 543.948 441.027 573.703 415.31 573.703 409.213 563.895"/><circle class="cls-5" cx="450.667" cy="526.659" r="12.56"/><polygon class="cls-1" points="425.546 557.188 427.128 559.802 429.917 555.775 422.598 543.948 414.649 555.66 417.155 559.802 419.073 557.032 422.141 562.103 425.546 557.188"/><rect class="cls-5" x="490.988" y="503.595" width="318.791" height="6.697"/><rect class="cls-5" x="490.988" y="519.962" width="318.791" height="6.697"/><rect class="cls-5" x="490.988" y="536.33" width="318.791" height="6.697"/><rect class="cls-8" x="490.988" y="552.697" width="121.206" height="6.697"/><path id="_Compound_Path_" data-name=" Compound Path " class="cls-10" d="M316.56,591.1h5.226a1.916,1.916,0,0,0,1.914-1.917l-0.005-6.666a1.916,1.916,0,0,0-1.918-1.913h-4.089a1.609,1.609,0,0,1-1.5-1.07q-0.216-.573-0.47-1.13a1.61,1.61,0,0,1,.3-1.818l2.891-2.894a1.916,1.916,0,0,0,0-2.709l-4.715-4.711a1.915,1.915,0,0,0-2.708,0h0l-2.914,2.916a1.58,1.58,0,0,1-1.744.334c-0.416-.177-0.865-0.358-1.253-0.508a1.575,1.575,0,0,1-1-1.471v-4.132a1.916,1.916,0,0,0-1.916-1.916h-6.665a1.916,1.916,0,0,0-1.916,1.916h0V567.5a1.609,1.609,0,0,1-1.071,1.5q-0.6.226-1.185,0.494A1.606,1.606,0,0,1,290,569.2l-2.9-2.886a1.915,1.915,0,0,0-2.708.006h0l-4.7,4.727a1.916,1.916,0,0,0,.008,2.709l2.924,2.908a1.582,1.582,0,0,1,.338,1.744c-0.177.416-.355,0.864-0.505,1.252a1.574,1.574,0,0,1-1.469,1l-4.133.011a1.916,1.916,0,0,0-1.911,1.92l0.016,6.666a1.916,1.916,0,0,0,1.921,1.911h0l4.091-.01a1.613,1.613,0,0,1,1.5,1.068q0.217,0.572.471,1.129a1.61,1.61,0,0,1-.3,1.819l-2.888,2.9a1.918,1.918,0,0,0,.005,2.71l4.723,4.7a1.915,1.915,0,0,0,2.708,0h0l2.91-2.922a1.581,1.581,0,0,1,1.744-.337c0.415,0.177.865,0.356,1.252,0.506a1.575,1.575,0,0,1,1,1.47l0.006,4.132a1.915,1.915,0,0,0,1.918,1.912h0l6.665-.011a1.915,1.915,0,0,0,1.912-1.918h0l-0.006-4.091a1.611,1.611,0,0,1,1.069-1.5q0.573-.216,1.13-0.471a1.61,1.61,0,0,1,1.818.3l2.9,2.89a1.916,1.916,0,0,0,2.709,0l4.707-4.719a1.916,1.916,0,0,0,0-2.709L316.01,595.1a1.583,1.583,0,0,1-.335-1.744C316.1,592.362,316.538,591.174,316.56,591.1Zm-26.526-6.935a9.445,9.445,0,1,1,5.881,10.507,9.445,9.445,0,0,1-5.881-10.507v0Z"/><rect class="cls-10" x="925.441" y="564.054" width="44.613" height="44.613" rx="2.612" ry="2.612"/><path class="cls-1" d="M936.062,587.691v0.066l6.043,1.981V593.1l-9.677-3.941v-2.912l9.677-3.941v3.349Z"/><path class="cls-1" d="M946.768,595.014h-3.733l5.44-17.306h3.733Z"/><path class="cls-1" d="M959.433,587.734v-0.066l-5.988-1.992v-3.35l9.622,3.941v2.912l-9.622,3.941v-3.349Z"/><rect class="cls-2" x="608.704" y="85.448" width="436.335" height="186.486" rx="4.305" ry="4.305"/><rect class="cls-1" x="633.919" y="111.348" width="7.947" height="134.685"/><rect class="cls-1" x="654.311" y="111.348" width="7.946" height="134.685"/><rect class="cls-1" x="674.703" y="111.348" width="7.946" height="134.685"/><rect class="cls-1" x="695.095" y="111.348" width="7.946" height="134.685"/><rect class="cls-1" x="715.487" y="111.348" width="7.946" height="134.685"/><rect class="cls-1" x="735.879" y="111.348" width="7.946" height="134.685"/><rect class="cls-10" x="633.919" y="186.745" width="7.947" height="59.289"/><rect class="cls-10" x="654.311" y="162.117" width="7.946" height="83.916"/><rect class="cls-10" x="674.703" y="149.595" width="7.946" height="96.438"/><rect class="cls-10" x="695.095" y="162.117" width="7.946" height="83.916"/><rect class="cls-10" x="715.487" y="137.49" width="7.946" height="108.543"/><rect class="cls-10" x="735.879" y="124.133" width="7.946" height="121.901"/><circle class="cls-5" cx="812.454" cy="134.196" r="22.027"/><rect class="cls-1" x="846.347" y="115.651" width="178.146" height="5.933"/><rect class="cls-1" x="846.347" y="132.925" width="178.146" height="5.933"/><rect class="cls-8" x="846.347" y="150.2" width="74.628" height="5.933"/><circle class="cls-5" cx="812.454" cy="219.348" r="22.027"/><rect class="cls-1" x="846.347" y="200.804" width="178.146" height="5.933"/><rect class="cls-1" x="846.347" y="218.077" width="178.146" height="5.933"/><rect class="cls-8" x="846.347" y="235.352" width="74.628" height="5.933"/><path class="cls-11" d="M811.552,238.386s7.359-6.726,7.359-16.975h22.34s0.438,14.1,5.782,16.975H811.552Z"/><path class="cls-11" d="M775.883,264.474l-46.13,13.373a11.2,11.2,0,0,1-5.345.219l-48.781-9.9-3.771-9.435-0.588.2a5.047,5.047,0,0,0-3.433,4.782v2.777l-3.061,1.409-9.74,2.278-2.465,1.61h-9.083l3.268,2.993a3.319,3.319,0,0,0,1.748.833l21.837,3.275,10.018,1.793,39.4,16.166a13.218,13.218,0,0,0,8.208.6l50.27-12.52Z"/><path class="cls-11" d="M879.595,264.474l46.13,13.373a11.2,11.2,0,0,0,5.345.219l48.781-9.9,3.771-9.435,0.588,0.2a5.047,5.047,0,0,1,3.433,4.782v2.777l3.057,1.41,9.74,2.278,2.465,1.61h9.083l-3.269,2.993a3.316,3.316,0,0,1-1.748.833l-21.837,3.275-10.018,1.793-39.4,16.166a13.219,13.219,0,0,1-8.209.6l-50.27-12.52Z"/><path class="cls-11" d="M830.569,189.578a9.486,9.486,0,0,0-5.018-6.365l3.424-2.816a17.617,17.617,0,0,0-4.441.631,27.972,27.972,0,0,0-4.1,1.851c-2.023,1-3.1,1.16-4.116,3.3l-3.2,6.755a16.351,16.351,0,0,0-1.949,7.8l-0.282,4.006a15.334,15.334,0,0,0,1.093,7.958c0.867,2.549,1.724,6.212,3.991,7.863,2.4,1.75,5.013,3.279,8.081,3.294a3.356,3.356,0,0,0,1.922-.449,3.763,3.763,0,0,0,1.153-1.591c3.459-7.369,3.77-15.768,4.021-23.9A28.073,28.073,0,0,0,830.569,189.578Z"/><rect class="cls-11" x="865.185" y="587.517" width="15.507" height="12.979"/><path class="cls-10" d="M877.538,596.454H864.922l-2.365,7.1v3.416a3.416,3.416,0,0,0,3.415,3.417h13.143l13.93-5.256v-2.4a12.271,12.271,0,0,0-5.079-9.943l-7.273-5.262v8.411Z"/><path class="cls-12" d="M865.973,605.653h13.142l13.664-5.156a12.171,12.171,0,0,1,.266,2.227v2.4l-13.93,5.257H865.973a3.416,3.416,0,0,1-3.416-3.416h0V603.55l0.165-.5A3.368,3.368,0,0,0,865.973,605.653Z"/><rect class="cls-11" x="784.481" y="587.517" width="15.506" height="12.979"/><path class="cls-9" d="M791.2,381.581s-3.31,22.564-5.888,44.362a121.124,121.124,0,0,0-.83,14.242v150.75h15.506s11.981-52.515,14.4-87.524a186.626,186.626,0,0,1,4.266-27.561l16.289-73.329V384.58Z"/><path class="cls-9" d="M874.095,387.342s3.478,19.467,6.079,41.458a71.278,71.278,0,0,1,.5,8.363V590.934l-15.491.276s-13.266-50.431-14.9-88.912a109.556,109.556,0,0,0-2.676-18.141l-17.394-59.219V384.58Z"/><path class="cls-10" d="M787.635,596.454h12.616l2.365,7.1v3.416a3.417,3.417,0,0,1-3.417,3.417H786.058l-13.93-5.256v-2.4a12.272,12.272,0,0,1,5.079-9.943l7.274-5.262v8.411Z"/><path class="cls-12" d="M799.2,605.653H786.058L772.394,600.5a12.144,12.144,0,0,0-.266,2.227v2.4l13.93,5.257H799.2a3.417,3.417,0,0,0,3.417-3.417V603.55l-0.165-.5A3.369,3.369,0,0,1,799.2,605.653Z"/><path class="cls-7" d="M847.033,236.908l17.364,5.4c6.347,1.972,39.128,25.762,39.128,25.762L893.8,292.1l-21-7.614,4.447,115.863c-13.495-11.4-57.8,17.1-92.756-4.452,0,0,16.032-74.089,5.256-109.308l-24.506,5.094-11.409-24.349,15.844-9.92a66.906,66.906,0,0,0,7.826-5.546,54.094,54.094,0,0,1,19.366-10.525l14.693-4.427h35.482Z"/><path class="cls-9" d="M851.132,202.571c-0.366-2.438.281-4.9,0.489-7.357a18.322,18.322,0,0,0-1.927-10.114,22.353,22.353,0,0,0-4.932-6.857c-4.138-3.6-10.009-4.4-15.5-4.336a13.269,13.269,0,0,0-4.925.751c-1.217.5-2.292,1.325-3.548,1.718-0.833.261-1.714,0.321-2.563,0.524a12.991,12.991,0,0,0-3.276,1.4,8.414,8.414,0,0,0-2.888,2.315c-1.929,2.734-1.432,8.249-.188,11.171,0.473,1.112,1.153,2.128,1.609,3.247,1.664,4.082.139,8.824,1.255,13.09,0.771,2.953,2.747,5.442,3.853,8.287,0.7,1.8,1.063,3.759,2.151,5.352,2.2,3.22,6.07,3.6,9.553,4.354,4.315,0.935,8.224,2.331,12.728,2.414,7.816,0.142,6.121-7,8.557-12.058a24.22,24.22,0,0,0,1.729-3.438C854.343,209.565,851.669,206.149,851.132,202.571Z"/><rect class="cls-11" x="148.228" y="572.758" width="19.615" height="21.183"/><rect class="cls-11" x="39.78" y="568.995" width="21.183" height="19.615" transform="translate(-520.2 469.266) rotate(-74.159)"/><polygon class="cls-10" points="132.919 406.434 168.829 477.768 170.239 582.619 146.149 582.619 143.849 494.526 107.036 441.941 132.919 406.434"/><polygon class="cls-13" points="135.783 412.123 126.757 429.122 124.998 467.599 107.036 441.941 132.919 406.434 135.783 412.123"/><path class="cls-10" d="M132.919,406.434l0.944,1.876-11.051,20.812-27.8,65.763a39.958,39.958,0,0,1-7.625,11.74h0L60.619,581.094,39.357,578.8l13.588-57.871a93.706,93.706,0,0,1,12.092-30.138c1.461-2.289,2.556-4.7,2.556-6.781l9.861-60.941-1.67-6.624a27.7,27.7,0,0,1,1.357-17.584l2.6-6.131Z"/><path class="cls-14" d="M170.239,310.906l26.37,35.394a4.857,4.857,0,0,0,3.38,2.09l42.225,5.618a4.615,4.615,0,0,0,4.841-2.56l7.4-15.342V326.081a5.264,5.264,0,0,1,5.094-5.262h0v29.746l-7.04,10.278a4.365,4.365,0,0,1-3.255,1.885l-51.985,4.123a7.949,7.949,0,0,1-6.579-2.653l-44.539-50.281Z"/><rect class="cls-11" x="160.296" y="282.363" width="19.886" height="19.228" transform="translate(-167.583 281.571) rotate(-57.991)"/><path class="cls-11" d="M192.659,251.959v7.56s-0.187,9.032,3.867,12.748l-2.881.729,0.03,2.876a12.987,12.987,0,0,1-12.853,13.119h-8.685a9.83,9.83,0,0,1-9.3-6.655l-7.151-20.954,2.848-12.161S183.072,240.893,192.659,251.959Z"/><path class="cls-9" d="M176.756,322.791l-5.791-14.134,2.156-3.154-20.4-13.527-16.683,6.107a11.379,11.379,0,0,0-6.106,5.289L107.005,349.1a9.6,9.6,0,0,1-.679,1.147L77.454,392.145,138.637,410.5l4.526-31.482a9.8,9.8,0,0,1,2.046-4.14l28.879-34.5Z"/><path class="cls-9" d="M205.883,606.773l-0.915-2.2a18.841,18.841,0,0,0-8.683-9.462l-16.3-5.974-11.02-6.926v5.9l-12.624-.237L151.181,585l-3.622.048v21.725h58.324Z"/><rect class="cls-15" x="146.375" y="606.773" width="61.005" height="3.464"/><path class="cls-9" d="M86.2,607.9l-0.737-3.085c-1.81-3.994-1.81-3.994-4.861-6.645l-13.239-8.8-8.336-8.521-1.26,5.259L46.577,583.2l-3.983-3.668-3.237-.731L34.721,598.15l45.614,10.931Z"/><polygon class="cls-15" points="32.875 601.125 69.958 609.856 74.828 607.761 33.657 597.863 32.875 601.125"/><polygon class="cls-15" points="87.387 609.971 69.958 609.856 69.958 606.792 87.388 606.799 87.387 609.971"/><path class="cls-16" d="M165.967,235.592a17.127,17.127,0,0,1,9.026.614c1.79,0.627,3.19,1.926,4.994,2.313,2.131,0.458,4.524.07,6.684,0.05a15.107,15.107,0,0,1,4.288.37,5.1,5.1,0,0,1,3.312,2.562,7.6,7.6,0,0,1,.321,3.923c-0.211,2.232,0,4.8-1.265,6.73-1.177,1.8-2.836,2.029-4.771,2.643a8.267,8.267,0,0,0-2.429,1.07c-2.433,1.776-2.428,5.723-4.9,7.451-1.687,1.182-4.214,1.063-5.47,2.7-1.009,1.311-.73,3.16-1.029,4.787a6.629,6.629,0,0,1-3.946,4.851,4.646,4.646,0,0,0-1.554.784,2.686,2.686,0,0,0-.669,1.3c-0.707,2.769.479,6.094-1.3,8.333-1.244,1.568-3.235,1.672-4.777,2.741-2,1.384-1.531,2.61-1.6,5.018a12.985,12.985,0,0,0,.591,5.331c0.842,2.053,2.659,3.517,4.4,4.888a44.562,44.562,0,0,0-5.063-1.874,93.6,93.6,0,0,0,1.376,12.071c-2.31-1.271-3.721-3.677-5.06-5.948-0.9-1.533-2.238-3.269-4-3.035a14.125,14.125,0,0,1-2.252,3.616,16.767,16.767,0,0,0-3.944-6.776,53.621,53.621,0,0,1-3.456,4.581c-1.247,1.508-2.338,3.406-1.955,5.325a16.166,16.166,0,0,0-2.034-5.552c-4.408,4.173-9.115,8.511-15.031,9.871-0.422-3.895,1.994-7.441,3.8-10.917,0.94-1.81,2.493-4.383,2.529-6.47,0.032-1.9-1.111-3.447-.6-5.467,0.93-3.7,5.9-5.338,6.632-9.079,0.325-1.665-.29-3.431.166-5.065,0.479-1.711,2-2.88,3.064-4.3,1.557-2.1,1.711-4.346,2.158-6.8,0.362-1.987,1.378-3.005,2.1-4.763,1.562-3.786-3-8.151,1.783-11.1a17.2,17.2,0,0,0,2.25-1.286,7.116,7.116,0,0,0,1.677-2.762,40.08,40.08,0,0,1,3.9-7.024,6.115,6.115,0,0,1,1.961-2.009,11.753,11.753,0,0,1,2.58-.754,27.564,27.564,0,0,0,4.049-1.809A15.981,15.981,0,0,1,165.967,235.592Z"/><path class="cls-17" d="M146.556,320.654c3.5,1.624,7.042,4.558,6.111,8.271,4.2,1.142,5.037,5.234,9.418,7.724a1.671,1.671,0,0,1,.585,2.192l2.6,1.162a1.461,1.461,0,0,1,.722,1.692,17.186,17.186,0,0,1,3.953,3.632l-2.153,2.572c-1.413-1.956-2.7-4.885-4.958-6.044-0.5-.257-2.628-2.575-2.658-3.1-1.581-.576-1.737,2.016-1.934.5a2.075,2.075,0,0,1,.241-1.325c-2.581-2.4-3.9-4.609-6.745-4.621-1.165-.005-1.213-0.927-0.493-1.972,2.312-3.358-3.285-9.185-5.1-10.025C144.247,320.43,144.662,319.775,146.556,320.654Z"/><path class="cls-11" d="M176.756,322.791l19.853,28.765a4.856,4.856,0,0,0,3.38,2.09l42.225,5.618a4.614,4.614,0,0,0,4.841-2.559l7.4-15.342V331.34a5.264,5.264,0,0,1,5.094-5.262h0v29.746l-7.04,10.278a4.364,4.364,0,0,1-3.255,1.884l-51.985,4.123a7.949,7.949,0,0,1-6.579-2.653l-33.872-36.435Z"/><path class="cls-17" d="M133.677,374.112c-0.723-1.177.432-.164,1.79,0.284a27.158,27.158,0,0,0,3.044.627,4.4,4.4,0,0,0,4.719-2.2,0.219,0.219,0,0,1,.043-0.068c-1.041-.376-4.661-3.091-5.752-3.369-2.051-.523-1.993-1.029.047-0.624,3.586,0.71,7.131,1.574,10.66,2.509l-3.019,3.606a9.753,9.753,0,0,0-1.769,3.357c-0.123-.051-0.245-0.1-0.367-0.152,0.1,0.143.173,0.3,0.265,0.441-0.048.169-.136,0.323-0.175,0.494l-1.35,9.393a1.522,1.522,0,0,1-.767-0.949l-1.5-5.02a1.488,1.488,0,0,1,1.116-1.92C138.9,377.939,135.5,377.078,133.677,374.112Z"/><path class="cls-17" d="M115.362,352.757c-4.821-3.616-3.037.271-4.8-.694,0.252,0.451,2.688,3.092,2.939,3.543,0.683,1.225-2.632.6-4.025,0.206-0.12-.034-0.237-0.053-0.356-0.084,0.2,0.158.021,1.464,0.218,1.631,1.385,1.166.214,1.786-1.207,1.56a12.783,12.783,0,0,0-8.492,1.042l5.6-8.121a0.94,0.94,0,0,0,.811-1.177l0.282-.409a9.609,9.609,0,0,0,.679-1.148L108,347.141c0.556,0.275.9-.568,0.638-1.274l4.833-9.641a1.511,1.511,0,0,1,.138,1.755c-1.565,2.808-2.676,5.048-1.035,8.14a35.626,35.626,0,0,0,5.158,6.513C118.9,353.945,116.921,353.926,115.362,352.757Z"/><circle class="cls-1" cx="160.289" cy="597.478" r="4.205"/><circle class="cls-1" cx="45.242" cy="593.273" r="4.205"/><path class="cls-11" d="M522.844,593.892l-11.678,5.192L492.5,603.861a5.28,5.28,0,0,0-4.122,5.151h0l54.48-.233-1.336-9.55-7.783-5.336H522.844Z"/><path class="cls-12" d="M517.466,603.291l-6.3-4.207-18.285,3.091c-2.41.541-4.5,4.368-4.5,6.837h0l54.48-.233-1.336-9.55-4.447,3.891-7.769-.065C525.722,603.73,520.678,605.042,517.466,603.291Z"/><polygon class="cls-11" points="539.271 599.228 522.844 595.073 522.844 572.422 539.271 572.422 539.271 599.228"/><path class="cls-16" d="M655.219,531.427S551.148,493.8,539.026,498.462c0,0-15.52-.016-18.818,24.7l0.6,53.342h20.4l5.379-40.723a4.335,4.335,0,0,1,6.234-2.453l62.9,35.043Z"/><path class="cls-16" d="M599.559,540.969l-62.92,38.767a12.644,12.644,0,0,0-6.012,10.765v3.723a14.788,14.788,0,0,0,14.787,14.787l85.5-4.225v-24.9s26.206-10.2,24.9-32.02Z"/><polygon class="cls-11" points="635.507 577.666 678.497 609.012 678.497 609.012 630.912 604.787 630.912 579.882 635.507 577.666"/><path class="cls-12" d="M635.507,577.666l-4.595,2.216v10.674h0a9.585,9.585,0,0,1,9,.357l21.158,16.128a9.63,9.63,0,0,0,5.836,1.97H678.5Z"/><path class="cls-11" d="M593.11,397.1s10.161,19.457,2.335,31.019l27.685-2.565-11.066-35.208Z"/><path class="cls-9" d="M614.962,387.5a23.489,23.489,0,0,0-2.365-6.359c-3.02-6.206-6.255-12.673-11.867-16.689-2.468-1.765-5.323-2.995-7.566-5.038l-1.631.995-3,.52a9.067,9.067,0,0,0-6.772,5.387,7.8,7.8,0,0,0,1.72,8.339,21.934,21.934,0,0,0,4.667,2.835,20.324,20.324,0,0,1,8.069,8.272,30.308,30.308,0,0,0,1.995,3.7c2.516,3.509,7.154,4.616,11.386,5.471a4.8,4.8,0,0,0,2.417.069,3.408,3.408,0,0,0,1.485-1.074A7.931,7.931,0,0,0,614.962,387.5Z"/><path class="cls-11" d="M614.036,379.9a116.039,116.039,0,0,0-7.425-11.9,7.891,7.891,0,0,0-6.839-3.946,62.7,62.7,0,0,0-10.032-.329l-0.517.72a44.459,44.459,0,0,0-2.123,7.373c-0.541,2.663-4.5,8.979-4.772,11.7-0.04.4,3.524,0.806,3.486,1.209-0.134,1.438-.251,2.877-0.367,4.311-0.217,2.682-.431,1.8.128,4.436a9.421,9.421,0,0,0,4.382,6.473c2.673,1.432,5.948.979,8.866,0.155a40.065,40.065,0,0,0,11.55-5.37c2.971-2.012,5.893-4.882,5.929-8.47C616.324,383.986,615.164,381.884,614.036,379.9Z"/><path class="cls-7" d="M635.089,434.417C629.317,452.236,661.6,548.085,661.6,548.085c-13.786,18.234-47.048-7.338-68.487-2.668,0,0,.226-40.247-7.892-58.259l-10.925-17.8a11.658,11.658,0,0,1,.52-12.97l20.632-28.266L625,416.907a6.222,6.222,0,0,1,6.98,1.825h0A16.536,16.536,0,0,1,635.089,434.417Z"/><path class="cls-9" d="M640.5,431.947c0.517-13.242-4.235-26.178-4.581-39.426-0.269-10.285,1.831-21.7-4.27-29.982-5.035-6.836-14.233-9.189-22.722-9.347a31.131,31.131,0,0,0-12.225,1.82,20.077,20.077,0,0,0-6.412,4.3c-0.993.983-2.086,1.886-1.6,3.2,0.432,1.183,2.486,2.238,3.567,2.654,1.533,0.588,3.2.706,4.781,1.16,3.749,1.078,4,3.837,4.5,7.244a101.009,101.009,0,0,1,1.04,12.05,30.138,30.138,0,0,0,.341,4.73,9.994,9.994,0,0,0,.689,2.268c1.2,2.672,3.691,4.487,5.952,6.349,1.827,1.5,4.136,3.523,4.675,5.954,0.627,2.827-.468,5.886.3,8.836,1.236,4.758,5.5,7.984,8.6,11.793,4.627,5.67,6.841,13,7.5,20.29s6.655,16.322,7.842,21.9C643.608,456.3,640.006,444.481,640.5,431.947Z"/><path class="cls-11" d="M500.229,452.943l48.407,37.474a7.329,7.329,0,0,0,7.172,1.023l59.948-23.617a10.7,10.7,0,0,0,5.326-15.341h0a10.7,10.7,0,0,0-13.5-4.436l-55.987,24.242-45.029-27.017-4.046-5.683-9.193-6.2-1.343-.344V437.3l0.723,0.215,0.929,2.583-10.02-1.756-13.533-2.479c-0.535.446-.413,2.228,0,2.789l11.26,3.512-0.1,1.24L468.019,440c-0.571.443-.431,2.312,0,2.892l13.274,4.029-0.315,1.538-12.03-2.881a2.027,2.027,0,0,0,0,1.963l11.518,3.667a1.054,1.054,0,0,1-.052.982l-10.384-1.813c-1.594,1.128-.166,2.386.054,2.639l19.368,2.741a11.615,11.615,0,0,0,6.268-.852Z"/><path class="cls-7" d="M624.2,450.323a11.486,11.486,0,0,0-14.49-4.762l-30.751,10.6c-2.886,6.315,11.519,15.752,10.339,25.776l29.186-15.144A11.486,11.486,0,0,0,624.2,450.323Z"/><g id="_Group_" data-name=" Group "><g id="_Group_2" data-name=" Group 2"><circle id="_Path_" data-name=" Path " class="cls-8" cx="718.945" cy="593.771" r="15.612"/></g><g id="_Group_3" data-name=" Group 3"><path id="_Path_2" data-name=" Path 2" class="cls-1" d="M724.606,602.725l-5.386-2.743a0.359,0.359,0,0,0-.334,0l-5.313,2.882a0.359,0.359,0,0,1-.525-0.372l0.944-5.97a0.359,0.359,0,0,0-.107-0.316l-4.382-4.162a0.358,0.358,0,0,1,.191-0.614l5.97-.947a0.358,0.358,0,0,0,.267-0.2l2.6-5.454a0.358,0.358,0,0,1,.643-0.008l2.745,5.385a0.359,0.359,0,0,0,.273.193l5.992,0.791a0.359,0.359,0,0,1,.207.609l-4.273,4.275a0.357,0.357,0,0,0-.1.319l1.1,5.944A0.358,0.358,0,0,1,724.606,602.725Z"/></g></g><g id="_Group_4" data-name=" Group 4"><g id="_Group_5" data-name=" Group 5"><g id="_Group_6" data-name=" Group 6"><rect id="_Rectangle_" data-name=" Rectangle " class="cls-7" x="1046.365" y="585.328" width="32.237" height="24.3" rx="1.855" ry="1.855"/></g></g><g id="_Group_7" data-name=" Group 7"><g id="_Group_8" data-name=" Group 8"><polygon id="_Path_3" data-name=" Path 3" class="cls-1" points="1068.983 597.478 1055.985 604.983 1055.985 589.974 1068.983 597.478 1055.985 604.983 1055.985 589.974 1068.983 597.478"/></g></g></g><g id="_Group_9" data-name=" Group 9"><g id="_Group_10" data-name=" Group 10"><g id="_Group_11" data-name=" Group 11"><polygon id="_Path_4" data-name=" Path 4" class="cls-2" points="579.954 126.551 579.954 214.116 514.153 214.116 514.153 214.116 514.153 126.551 579.954 126.551"/></g></g></g><rect id="_Rectangle_2" data-name=" Rectangle 2" class="cls-18" x="519.198" y="149.953" width="10.886" height="10.886"/><polygon id="_Path_5" data-name=" Path 5" class="cls-1" points="576.033 152.675 534.757 152.675 534.757 152.675 534.757 149.954 534.757 149.953 576.033 149.953 576.033 152.675"/><polygon id="_Path_6" data-name=" Path 6" class="cls-1" points="551.313 159.445 534.757 159.445 534.757 159.444 534.757 156.723 551.313 156.723 551.313 159.445"/><polygon id="_Path_7" data-name=" Path 7" class="cls-1" points="576.033 174.097 534.757 174.097 534.757 174.097 534.757 171.376 576.033 171.376 576.033 174.097"/><polygon id="_Path_8" data-name=" Path 8" class="cls-1" points="551.313 180.867 534.757 180.867 534.757 180.867 534.757 178.146 551.313 178.146 551.313 180.867"/><polygon id="_Path_9" data-name=" Path 9" class="cls-1" points="576.033 195.52 534.757 195.52 534.757 195.52 534.757 192.799 576.033 192.799 576.033 195.52"/><polygon id="_Path_10" data-name=" Path 10" class="cls-1" points="551.313 202.29 534.757 202.29 534.757 202.29 534.757 199.569 534.757 199.568 551.313 199.568 551.313 199.569 551.313 202.29 551.313 202.29"/><rect id="_Rectangle_3" data-name=" Rectangle 3" class="cls-18" x="519.198" y="170.679" width="10.886" height="10.886"/><rect id="_Rectangle_4" data-name=" Rectangle 4" class="cls-18" x="519.198" y="191.404" width="10.886" height="10.886"/><g id="_Group_12" data-name=" Group 12"><polygon id="_Path_11" data-name=" Path 11" class="cls-19" points="524.922 159.658 519.317 154.053 521.252 152.118 524.922 155.79 534.608 146.104 536.542 148.038 524.922 159.658"/></g><g id="_Group_13" data-name=" Group 13"><polygon id="_Path_12" data-name=" Path 12" class="cls-19" points="524.922 179.783 519.317 174.177 521.252 172.243 524.922 175.914 534.608 166.228 536.542 168.163 524.922 179.783"/></g><g id="_Group_14" data-name=" Group 14"><polygon id="_Path_13" data-name=" Path 13" class="cls-19" points="524.922 199.908 519.317 194.302 521.252 192.368 524.922 196.039 534.608 186.353 536.542 188.288 524.922 199.908"/></g><rect class="cls-7" x="49.218" y="96.084" width="185.205" height="97.068" rx="1.96" ry="1.96"/><rect class="cls-1" x="58.489" y="103.941" width="10.767" height="5.463"/><rect class="cls-1" x="140.034" y="112.695" width="82.738" height="5.463"/><rect class="cls-1" x="140.034" y="128.105" width="82.738" height="5.463"/><rect class="cls-1" x="140.034" y="143.515" width="82.738" height="5.463"/><rect class="cls-1" x="140.034" y="158.925" width="47.407" height="5.463"/><rect class="cls-1" x="58.489" y="119.029" width="10.767" height="5.463"/><rect class="cls-1" x="58.489" y="134.118" width="10.767" height="5.463"/><rect class="cls-1" x="58.489" y="149.206" width="10.767" height="5.463"/><rect class="cls-1" x="58.489" y="164.295" width="10.767" height="5.463"/><rect class="cls-1" x="58.489" y="179.383" width="10.767" height="5.463"/><g id="_Group_15" data-name=" Group 15"><path id="_Path_14" data-name=" Path 14" class="cls-1" d="M105.621,105.48v25.344l0.013,0.013,17.882,17.931a25.261,25.261,0,0,0,7.445-17.869v-0.075A25.344,25.344,0,0,0,105.621,105.48Z"/><path id="_Path_15" data-name=" Path 15" class="cls-5" d="M86.5,112.879a25.262,25.262,0,0,0-7.446,17.9l25.341,0.061V105.48A25.261,25.261,0,0,0,86.5,112.879Z"/><path id="_Path_16" data-name=" Path 16" class="cls-1" d="M104.4,132.068h-0.01l-25.341-.062v0.048A25.342,25.342,0,0,0,122.285,150Z"/></g></svg>